# xmcd
#
# Track frame offsets:
#	150
#	25004
#	51159
#	75347
#	96408
#	108765
#	126841
#	148979
#	161391
#	183340
#	199689
#	224543
#	236440
#
# Disc length: 3347 seconds
#
# Revision: 1
# Processed by: cddbd v1.5.2PL0 Copyright (c) Steve Scherf et al.
# Submitted via: audiograbber 1.83.01
#
DISCID=ac0d110d
DTITLE=Various Artist - Gitárpárbaj
DYEAR=2002
DGENRE=
TTITLE0=1. Az Arénában
TTITLE1=2. Az Arany-öböl kapuja II.
TTITLE2=3. Párbaj bugi
TTITLE3=4. Fülbevaló
TTITLE4=5. A dongó
TTITLE5=6. Kaliforniai anzix
TTITLE6=7. A szerény macskafarka
TTITLE7=8. Éva
TTITLE8=9. Örömóda a IX. szimfoniából
TTITLE9=10. Zöld csillag
TTITLE10=11. Temesvári vasárnap
TTITLE11=12. Sosoem voltál
TTITLE12=13. Mikor elindul a vonat
EXTD=
EXTT0=
EXTT1=
EXTT2=
EXTT3=
EXTT4=
EXTT5=
EXTT6=
EXTT7=
EXTT8=
EXTT9=
EXTT10=
EXTT11=
EXTT12=
PLAYORDER=
